# xmcd
#
# Track frame offsets:
#	150
#	11475
#	27990
#	46425
#	61855
#	82201
#	101123
#	117649
#	135931
#	159309
#	173913
#
# Disc length: 2606 seconds
#
# Revision: 1
# Processed by: cddbd v1.5.1PL0 Copyright (c) Steve Scherf et al.
# Submitted via: audiograbber 1.83.01
#
DISCID=8d0a2c0b
DTITLE=Mandy Mercier - Wild Dreams of the Shy Boys
DYEAR=1900
DGENRE=
TTITLE0=Already Fallin'
TTITLE1=Ready for Me
TTITLE2=Anything Less
TTITLE3=Make it Back to Midnight
TTITLE4=See It Now
TTITLE5=Worry My Life
TTITLE6=No Foolin' the Cards
TTITLE7=Judge Not/Columbine
TTITLE8=Homeless
TTITLE9=Willin'
TTITLE10=Wild Dreams of the Shy Boys
EXTD=
EXTT0=
EXTT1=
EXTT2=
EXTT3=
EXTT4=
EXTT5=
EXTT6=
EXTT7=
EXTT8=
EXTT9=
EXTT10=
PLAYORDER=
